<?xml version="1.0" encoding="UTF-8" standalone="no"?>
<!-- Created with Inkscape (http://www.inkscape.org/) -->

<svg
   xmlns:dc="http://purl.org/dc/elements/1.1/"
   xmlns:cc="http://creativecommons.org/ns#"
   xmlns:rdf="http://www.w3.org/1999/02/22-rdf-syntax-ns#"
   xmlns:svg="http://www.w3.org/2000/svg"
   xmlns="http://www.w3.org/2000/svg"
   xmlns:sodipodi="http://sodipodi.sourceforge.net/DTD/sodipodi-0.dtd"
   xmlns:inkscape="http://www.inkscape.org/namespaces/inkscape"

   viewBox="0 0 744.09448819 700"
   id="svg2"
   version="1.1"
   inkscape:version="0.91 r13725"
   sodipodi:docname="MagicMirror.svg">
  <defs
     id="defs4" />
  <sodipodi:namedview
     id="base"
     pagecolor="#ffffff"
     bordercolor="#666666"
     borderopacity="1.0"
     inkscape:pageopacity="0.0"
     inkscape:pageshadow="2"
     inkscape:zoom="0.49497475"
     inkscape:cx="122.77927"
     inkscape:cy="638.19196"
     inkscape:document-units="px"
     inkscape:current-layer="layer1"
     showgrid="false"
     inkscape:window-x="-8"
     inkscape:window-y="-8"
     inkscape:window-maximized="1" />
  <metadata
     id="metadata7">
    <rdf:RDF>
      <cc:Work
         rdf:about="">
        <dc:format>image/svg+xml</dc:format>
        <dc:type
           rdf:resource="http://purl.org/dc/dcmitype/StillImage" />
        <dc:title></dc:title>
      </cc:Work>
    </rdf:RDF>
  </metadata>
  <g
     inkscape:label="Layer 1"
     inkscape:groupmode="layer"
     id="layer1">
    <path
       style="fill:#ffffff;stroke:none"
       d="m 158.43788,644.389 c 31.69049,-16.08524 51.03536,-49.96908 72.76958,-127.46081 l 5.22177,-18.6178 1.46964,12.10158 c 2.63847,21.72584 8.85209,56.13314 10.79154,59.75704 1.26602,2.36555 3.8861,3.53542 7.8817,3.5192 5.73352,-0.0233 6.25322,-0.66941 12.35451,-15.3597 13.63932,-32.83979 43.22087,-85.53885 63.54266,-113.20019 15.77565,-21.47331 15.95565,-21.55298 8.13804,-3.60224 -42.61467,97.8516 -44.31576,168.01223 -4.33462,178.77805 9.58213,2.58021 18.78176,-1.18473 22.02455,-9.01357 2.18782,-5.2819 1.94316,-6.22243 -3.32898,-12.79603 -7.68139,-9.57761 -11.31697,-20.69559 -13.12299,-40.13135 -4.25407,-45.7812 10.89492,-105.15897 38.56683,-151.16604 3.65765,-6.08118 6.98227,-10.06075 7.38802,-8.84345 1.36111,4.08334 3.64462,2.26472 3.12299,-2.48721 -0.64257,-5.8537 7.25169,-15.6957 12.82965,-15.99512 3.22397,-0.17314 3.36596,-0.38711 0.71452,-1.0772 -2.81167,-0.73179 -2.15527,-2.2392 4.36767,-10.03014 6.81963,-8.14531 33.97263,-30.14228 39.46917,-31.97447 2.41528,-0.80508 -1.69501,-12.55564 -4.39189,-12.55564 -3.23194,0 -32.81596,18.6546 -44.05792,27.7813 -11.62641,9.43883 -14.8882,11.36348 -12.37984,7.30488 0.82305,-1.33174 0.51072,-1.64408 -0.82101,-0.82101 -1.1822,0.73063 -2.14945,2.25283 -2.14945,3.38266 0,1.12982 -8.60284,10.92454 -19.11741,21.76604 -35.06742,36.15773 -59.31543,70.84672 -89.26037,127.69507 l -10.78766,20.47959 0.99869,-20.47959 c 3.84712,-78.89075 13.03809,-124.57444 30.64996,-152.34549 5.33571,-8.41356 5.4576,-9.04449 2.59194,-13.41806 -1.6539,-2.52414 -3.98173,-4.58936 -5.17294,-4.58936 -1.19123,0 -10.38498,5.16998 -20.43058,11.48884 l -18.26474,11.48887 -11.93793,-5.88686 c -32.45221,-16.00291 -67.48854,-10.09236 -93.18114,15.71946 -17.26202,17.34213 -23.62874,38.27913 -19.35147,63.63756 4.56221,27.04794 19.86826,42.40755 41.95157,42.09839 25.96474,-0.3635 45.79643,-22.46824 37.64773,-41.9628 -3.57098,-8.54304 -7.40541,-11.30518 -14.71932,-10.60314 -5.98826,0.57481 -6.20956,0.89694 -7.41798,10.7987 -1.84635,15.12898 -11.80929,22.49507 -26.65789,19.70946 -20.61234,-3.8669 -23.88488,-43.10725 -5.46928,-65.58109 13.65192,-16.66037 37.1117,-23.13517 56.83639,-15.68663 5.73715,2.16649 13.69626,6.77437 17.68691,10.2397 l 7.25576,6.3006 8.10738,-6.61612 8.10738,-6.61612 -2.9138,5.63466 c -4.44617,8.59797 -10.33545,33.17004 -13.22363,55.17352 -1.78889,13.6286 -5.5833,28.60956 -12.19729,48.1572 -27.61043,81.60242 -60.12778,130.73847 -92.92425,140.41519 -8.56835,2.52811 -11.65136,2.62944 -20.40437,0.67061 -18.840407,-4.2163 -26.650128,-19.5012 -22.408671,-43.85741 6.077987,-34.90232 40.799191,-57.864 67.147971,-44.40599 4.21628,2.15354 5.26385,2.1203 7.21348,-0.22885 2.9419,-3.5448 1.14987,-12.5884 -3.89966,-19.67983 -6.25576,-8.78539 -13.4208,-11.46064 -28.63669,-10.69228 -11.22881,0.56703 -14.99328,1.68371 -23.92535,7.09711 -12.75542,7.73061 -25.909522,23.32375 -31.458859,37.29201 -3.193346,8.03796 -4.088956,14.24312 -4.165141,28.85759 -0.08599,16.49577 0.482017,19.85621 4.983113,29.48295 12.638828,27.03137 30.718507,39.25332 55.941947,37.81708 9.65635,-0.54984 15.48983,-2.16815 24.74006,-6.86332 z m 105.05432,-9.26671 c 4.58831,-1.11085 4.57499,-1.14139 -0.99606,-2.28287 -3.89576,-0.79823 -6.28776,-2.78395 -7.71451,-6.40424 l -2.06791,-5.24728 -0.19806,5.78146 c -0.16476,4.81087 -1.21388,6.10733 -6.24884,7.72251 l -6.05079,1.94103 6.09686,0.19007 c 4.80889,0.14987 6.54327,1.27165 8.20992,5.30997 l 2.11306,5.1199 1.10289,-5.50233 c 0.77437,-3.86335 2.48814,-5.83771 5.75344,-6.62822 z m 152.2109,-10.84433 5.10563,-1.86521 -5.20975,-0.1469 c -4.03115,-0.11373 -5.80475,-1.51589 -7.8397,-6.19777 l -2.62993,-6.05079 -0.0728,5.89565 c -0.0581,4.70519 -1.10668,6.27322 -5.19277,7.76559 -4.15222,1.5165 -4.39853,1.89773 -1.30325,2.01692 4.86277,0.18727 8.23825,3.55439 8.45284,8.43191 0.114,2.59113 0.7164,1.92204 1.87604,-2.08375 1.13012,-3.90376 3.43583,-6.53155 6.81377,-7.76558 z m 48.08882,-17.02947 c 0.97012,-0.97012 5.10059,-2.54493 9.17883,-3.49955 l 7.41496,-1.7357 -7.77958,-0.18701 c -8.63408,-0.20755 -13.61579,-3.88905 -13.6594,-10.09436 -0.0149,-2.2308 -0.84064,-5.31272 -1.83327,-6.84868 -1.30299,-2.01625 -1.81268,-0.29229 -1.83327,6.20056 -0.0279,8.8431 -0.16068,9.04511 -7.94107,12.10157 l -7.91257,3.10834 8.378,0.9309 c 8.20183,0.9113 8.41712,1.10708 10.2369,9.30889 l 1.85887,8.37802 1.06388,-7.94957 c 0.58511,-4.37226 1.8576,-8.74329 2.82772,-9.71341 z m 66.64218,-7.28874 c 1.30518,-1.0832 5.65866,-2.7399 9.67439,-3.68154 l 7.30132,-1.71209 -7.77958,-0.18701 c -9.50919,-0.2286 -12.64431,-3.12231 -14.69132,-13.55999 l -1.57628,-8.03751 -0.66251,9.26163 c -0.76514,10.69616 -2.87543,14.01063 -8.92045,14.01063 -2.37413,0 -4.83439,0.8378 -5.46725,1.86178 -0.68344,1.10583 1.49697,1.86177 5.36989,1.86177 7.28217,0 12.08594,4.9326 12.6423,12.98129 0.17891,2.58809 0.64278,1.21023 1.03085,-3.06194 0.38807,-4.27215 1.77346,-8.65382 3.07864,-9.73702 z m 91.3528,4.62511 c -1.05955,-5.64792 -0.59814,-6.686 4.10463,-9.23435 4.67097,-2.53113 4.82935,-2.87995 1.33736,-2.94566 -4.4211,-0.0832 -7.28548,-2.88057 -8.6551,-8.45256 -0.7449,-3.03044 -0.95548,-2.83983 -1.13125,1.02399 -0.26206,5.76079 -3.38037,9.17991 -8.50088,9.32088 -2.50192,0.0688 -1.57981,0.87055 2.67691,2.32723 4.06028,1.38947 6.71729,3.61745 7.09068,5.9457 0.87882,5.48007 1.98489,8.37802 3.19772,8.37802 0.59051,0 0.53649,-2.86345 -0.12002,-6.36325 z m 86.66692,-26.42134 8.37802,-2.22368 -7.807,-0.18283 c -8.57448,-0.20069 -13.60348,-4.89519 -13.60348,-12.69856 0,-2.33211 -0.9355,-4.24019 -2.07892,-4.24019 -1.23095,0 -1.63809,1.68577 -0.99815,4.13287 2.07722,7.94328 -0.56811,12.44414 -8.75621,14.89814 l -7.71542,2.31233 8.00328,0.6105 c 8.41491,0.64188 9.50083,1.86569 12.73419,14.35088 1.30787,5.05017 1.54319,4.61178 2.45607,-4.57523 l 1.00961,-10.16056 z m -313.71001,-2.33913 c 16.6557,-7.58558 29.15277,-28.61306 45.78538,-77.03815 5.53741,-16.12194 10.69639,-29.31731 11.46437,-29.32304 3.11917,-0.0233 1.07037,11.53971 -4.07776,23.01392 -9.12476,20.33737 -16.86726,46.88856 -16.86726,57.84254 0,13.68408 6.18883,21.53106 16.98131,21.53106 10.53509,0 18.21723,-3.83175 27.13029,-13.53227 10.57588,-11.51022 17.72486,-26.20855 31.24645,-64.24271 6.28856,-17.68876 12.01281,-31.5823 12.72057,-30.87453 2.58664,2.58663 1.15898,9.74215 -4.38197,21.96241 -22.42617,49.45983 -22.19916,78.98897 0.60871,79.18077 10.77052,0.0904 18.31158,-4.01716 28.63174,-15.59613 l 9.42181,-10.57101 2.43814,5.88625 c 5.22125,12.60522 24.02086,16.83143 39.5746,8.89648 13.53258,-6.9038 27.95641,-23.58399 38.35438,-44.35428 5.16792,-10.32308 10.33655,-21.88942 11.48586,-25.70295 1.81887,-6.03519 3.2418,-7.30351 10.98019,-9.78724 l 8.89052,-2.85353 -2.72358,7.99326 c -2.63041,7.71988 -2.5741,8.11777 1.64722,11.63503 2.40393,2.003 4.80428,3.66966 5.33413,3.70373 0.52984,0.034 4.19917,-9.36332 8.15404,-20.88309 11.11407,-32.37305 10.38484,-30.80479 12.53643,-26.96022 1.40168,2.5046 -0.58032,9.41826 -8.27283,28.8576 -14.97893,37.85243 -17.24904,50.46182 -11.33031,62.93464 2.26092,4.76456 4.51094,6.57015 9.3089,7.47025 21.09061,3.95661 39.6646,-13.12939 54.00372,-49.67739 4.88177,-12.44282 4.93349,-12.95778 1.66467,-16.56979 -4.6386,-5.12559 -7.74202,-4.66899 -9.25566,1.3618 -2.43038,9.68342 -13.50232,31.23263 -18.31153,35.63959 -2.83782,2.60048 -6.03761,3.96053 -7.76153,3.29901 -3.58966,-1.37748 -3.35888,-2.42762 8.60832,-39.17133 4.96628,-15.24831 9.0296,-29.93286 9.0296,-32.63234 0,-7.14898 -4.89859,-13.02171 -14.18044,-17.00038 -4.48851,-1.92399 -8.16093,-4.25277 -8.16093,-5.17504 0,-0.92229 1.84317,-4.02006 4.09592,-6.88399 4.87899,-6.20261 5.37991,-16.40559 1.01955,-20.76597 -5.13848,-5.13847 -14.26999,-3.9013 -20.20125,2.73693 -6.71189,7.51192 -8.54783,17.1586 -4.98958,26.21705 2.49987,6.36402 2.4124,7.78067 -1.04147,16.87057 -3.35508,8.82981 -4.80511,10.40251 -13.1605,14.27361 l -9.38998,4.35044 -2.0967,-10.50043 c -3.26015,-16.32691 -14.48133,-22.24373 -25.59934,-13.4983 -10.21928,8.03847 -9.80877,25.30094 0.81422,34.23959 5.43703,4.57495 5.58135,5.06777 3.44312,11.75578 -4.31562,13.49851 -15.30848,32.09781 -23.35434,39.51424 -4.47195,4.12211 -9.02541,7.49472 -10.11882,7.49472 -1.09341,0 -4.04442,-2.05643 -6.55782,-4.56983 -6.28635,-6.28634 -6.20501,-20.61995 0.22575,-39.78463 13.09636,-39.02919 34.02173,-61.15095 51.54266,-54.4895 7.18587,2.73208 6.83503,-1.76346 -0.62769,-8.04292 -4.18928,-3.52506 -7.81553,-4.80896 -13.49791,-4.77906 -25.35753,0.13349 -51.36027,29.14455 -69.21523,77.223 -11.29925,30.42577 -18.26481,41.89006 -25.4518,41.89006 -5.14603,0 -4.39134,-4.22667 7.02127,-39.3226 12.50658,-38.46015 12.38846,-40.70938 -2.56102,-48.7647 -5.34658,-2.88094 -9.70243,-6.23214 -9.67966,-7.44712 0.0226,-1.21498 1.67974,-4.30356 3.68216,-6.8635 3.68116,-4.7061 4.84301,-13.97492 2.26083,-18.03588 -2.73918,-4.30787 -10.49026,-5.91248 -16.45179,-3.40583 -8.07424,3.39495 -12.68394,13.87252 -10.98284,24.9634 2.28287,14.88405 1.83451,17.19702 -9.60304,49.53905 -12.30059,34.78253 -17.31126,45.74112 -23.95001,52.37987 -5.05786,5.05786 -10.15902,5.78035 -10.15902,1.4388 0,-1.6311 4.6079,-17.36122 10.23979,-34.95582 5.63188,-17.59461 10.23979,-33.78945 10.23979,-35.98853 0,-4.27988 -9.94292,-15.45548 -13.75072,-15.45548 -1.2615,0 -3.85145,-1.13911 -5.75547,-2.53137 -3.35084,-2.45018 -3.3285,-2.74716 0.69666,-9.25997 5.38204,-8.70835 4.66556,-17.31058 -1.84479,-22.14853 -4.42896,-3.29125 -5.3667,-3.36407 -11.31528,-0.87857 -10.65768,4.45305 -15.4601,18.93572 -10.75482,32.43329 1.69644,4.8664 0.56158,9.67138 -8.48635,35.93147 -12.56458,36.46654 -19.52902,52.25696 -25.82508,58.55302 -5.73171,5.73172 -10.46783,6.13043 -10.46783,0.88125 0,-2.10758 7.54129,-26.12345 16.75843,-53.36862 9.21714,-27.24515 16.54791,-49.70961 16.29058,-49.92103 -1.08003,-0.88737 -28.49475,3.1483 -29.72172,4.37527 -0.73771,0.73771 -8.49056,22.40056 -17.22855,48.13969 -13.17294,38.80298 -15.88723,48.76218 -15.88723,58.29286 0,10.22207 0.60243,12.09694 5.44213,16.93662 6.46021,6.46021 14.10742,7.05581 25.27724,1.96868 z M 98.105451,475.96368 c 0.552966,-0.55294 4.687719,-2.16128 9.188329,-3.57405 l 8.18295,-2.56868 -8.61549,-0.18414 c -9.807696,-0.20954 -11.668229,-1.85293 -13.908941,-12.28565 l -1.599455,-7.44712 -0.601012,8.69514 c -0.670994,9.70732 -2.172236,11.55361 -11.579815,14.24138 l -6.516237,1.86169 7.684613,0.16793 c 8.69291,0.18994 11.261751,2.43401 13.182698,11.51605 l 1.340719,6.33879 1.118131,-7.878 c 0.614977,-4.33289 1.570556,-8.3304 2.12351,-8.88338 z m 332.154419,-40.4895 c 9.29937,-8.52224 10.80964,-19.4702 3.67072,-26.60912 -4.18296,-4.18296 -6.12275,-4.83801 -11.66382,-3.93883 -7.82968,1.27058 -14.89428,7.24071 -18.45401,15.59502 -3.42101,8.02879 -3.23457,10.32693 1.30597,16.0993 5.78206,7.3507 16.39739,6.86666 25.14114,-1.14637 z m 29.87898,-33.20063 c 0.12813,-0.93865 0.33745,-2.80161 0.46545,-4.13991 0.12813,-1.33831 2.53668,-3.34366 5.35262,-4.4564 l 5.1199,-2.02311 -5.16598,-0.19806 c -3.76835,-0.14448 -5.75438,-1.5832 -7.34086,-5.31795 l -2.17489,-5.1199 -0.69492,5.11535 c -0.49504,3.64388 -2.06371,5.45889 -5.45329,6.30964 l -4.75836,1.19425 5.81248,2.44396 c 4.0237,1.69183 5.81246,3.71302 5.81246,6.56769 0,3.80916 2.49701,3.49919 3.02539,-0.37556 z M 607.0903,381.86321 c 1.49166,-1.23797 5.42979,-2.89604 8.75141,-3.68458 l 6.03932,-1.43372 -6.51623,-0.21907 c -9.07339,-0.30505 -11.77485,-2.52904 -14.246,-11.72801 l -2.14447,-7.98276 -0.18282,7.10407 c -0.23993,9.32467 -3.07222,14.29975 -8.16086,14.33492 -2.26792,0.0149 -5.3802,0.84065 -6.91618,1.83327 -2.05232,1.32632 -0.75549,1.81231 4.89194,1.83328 9.1512,0.0339 11.76569,2.65344 13.4278,13.4534 l 1.22901,7.98558 0.5575,-9.62277 c 0.32153,-5.55007 1.70533,-10.5754 3.26958,-11.87361 z m -73.86069,4.02872 4.8713,-1.78708 -5.20977,-0.1469 c -4.03114,-0.11374 -5.80475,-1.51589 -7.83969,-6.19777 l -2.62993,-6.05079 -0.0728,5.89565 c -0.0582,4.7227 -1.09147,6.25378 -5.19277,7.6958 -5.13278,1.8047 -5.0004,1.97497 3.72356,4.78932 1.79197,0.57808 3.34365,2.96241 3.44819,5.29851 0.15583,3.48395 0.53524,3.17279 2.11037,-1.73108 1.20989,-3.76677 3.72244,-6.63961 6.79162,-7.76558 z m 169.19724,-17.53696 4.89332,-2.22953 -5.48395,-0.94359 c -3.91346,-0.67338 -5.65538,-2.14774 -6.08252,-5.14823 -0.70438,-4.94803 -4.0559,-3.7 -4.0559,1.51031 0,2.34736 -1.76117,4.02512 -5.1199,4.87742 l -5.1199,1.29922 5.90634,1.54472 c 4.57765,1.19724 6.24439,2.90235 7.40914,7.57973 l 1.50283,6.03498 0.62861,-6.14775 c 0.46004,-4.49917 1.94078,-6.7456 5.52193,-8.37728 z M 341.68307,336.2755 c 0,-3.15208 1.35275,-5.21486 4.08194,-6.22446 4.01513,-1.4853 4.00353,-1.52969 -0.70843,-2.71231 -2.66036,-0.66771 -5.40828,-3.07397 -6.18007,-5.41168 l -1.38971,-4.20936 -0.8378,4.29419 c -0.46081,2.36181 -3.03168,5.29379 -5.71306,6.5155 l -4.87523,2.22132 5.48393,0.94359 c 3.90048,0.67112 5.65576,2.14972 6.07891,5.12061 0.81501,5.72221 4.05952,5.2927 4.05952,-0.5374 z m 29.32296,-11.84904 c -0.38355,-12.25595 0.12944,-15.35315 3.08393,-18.6178 4.98601,-5.50945 5.84423,-4.9642 5.84423,3.71285 0,6.42338 1.0923,8.62997 6.91203,13.96335 14.0759,12.8996 33.04757,6.74393 52.20231,-16.93786 8.25661,-10.20797 29.23562,-49.08617 29.23562,-54.17931 0,-1.18113 6.01013,-6.64887 13.35586,-12.15058 7.34574,-5.50171 15.33562,-11.56155 17.75528,-13.46629 2.41967,-1.90477 4.26943,-2.74257 4.11058,-1.86179 -2.16889,12.02513 5.32129,21.1704 17.28896,21.10923 14.45423,-0.0739 24.71496,-6.69523 35.43219,-22.86464 l 4.69294,-7.08037 1.28129,5.10504 c 4.87656,19.42979 29.03187,27.25171 50.74437,16.4319 14.11373,-7.03316 32.21458,-24.70971 45.04542,-43.98956 l 11.38897,-17.11318 -4.0599,-4.32155 c -2.23293,-2.37686 -4.63025,-4.32154 -5.32735,-4.32154 -0.69712,0 -4.64687,4.81736 -8.7772,10.70524 -8.70671,12.41157 -25.0989,28.44935 -33.53908,32.81396 -6.07281,3.14036 -16.62596,3.9771 -20.18533,1.60047 -6.82309,-4.55591 -8.36052,-22.57783 -3.38355,-39.66187 6.93039,-23.78922 26.11341,-50.50033 39.21338,-54.60206 5.28299,-1.65415 9.97052,3.13179 9.97052,10.17986 0,4.39356 -0.81345,5.46516 -4.189,5.51832 -14.55002,0.22916 -25.60815,20.40494 -16.29058,29.72252 8.36973,8.36972 22.11608,1.88574 29.84339,-14.07678 3.34806,-6.91615 3.94439,-10.86383 3.36732,-22.29146 -0.61527,-12.18426 -1.33009,-14.51545 -5.83017,-19.01327 -11.56508,-11.559333 -35.19731,-3.88451 -56.02604,18.19501 -12.34665,13.0881 -21.88091,30.19959 -35.66555,64.01029 -2.88375,7.07323 -7.85308,16.28904 -11.04294,20.47958 -6.05275,7.95155 -14.01148,11.25798 -14.01148,5.821 0,-1.64339 4.6711,-15.73484 10.38021,-31.31431 19.65681,-53.64106 25.43986,-70.39072 24.595,-71.23556 -0.46593,-0.46594 -7.17134,-0.31256 -14.90091,0.34083 l -14.05378,1.18797 -12.56211,33.7227 c -6.90915,18.54748 -14.04336,36.65499 -15.85383,40.23892 -4.51303,8.93392 -17.50565,24.59143 -26.21126,31.58746 -6.62461,5.32368 -7.07803,5.44808 -5.58379,1.53215 26.92756,-70.56858 39.29624,-103.32134 39.29624,-104.05799 0,-1.4206 -24.77825,0.44266 -27.95317,2.10201 -1.67382,0.87481 -4.27662,0.40768 -6.40662,-1.14982 -5.99783,-4.38571 -17.68063,-3.17349 -28.34138,2.94075 -17.17029,9.84762 -32.84852,32.75513 -47.16108,68.90723 -8.10513,20.47271 -12.96868,29.77422 -19.22632,36.77016 -4.72485,5.28232 -10.54497,5.54476 -10.54497,0.47546 0,-2.04243 7.9591,-25.50539 17.68692,-52.13987 9.7278,-26.63449 17.68691,-48.84658 17.68691,-49.36021 0,-1.53415 -26.849,1.29467 -28.7391,3.02796 -0.99756,0.91483 -3.19061,0.28886 -5.12676,-1.46334 -8.27642,-7.49008 -28.55226,-1.31763 -41.81276,12.72875 -23.76753,25.17612 -44.57532,76.43184 -40.87435,100.68576 1.59915,10.48003 8.2942,19.2577 15.97529,20.94475 6.72121,1.47622 18.97902,-3.63222 28.25205,-11.77405 l 6.61086,-5.80444 2.1106,4.63223 c 1.16081,2.54771 4.21741,5.59215 6.79244,6.7654 4.48598,2.04396 4.68187,2.82002 4.68187,18.54747 0,15.31485 -0.30215,16.61225 -4.51094,19.36995 -2.48101,1.62561 -10.17992,3.75851 -17.10868,4.73974 -6.92877,0.98123 -12.9976,2.18391 -13.48628,2.67259 -0.48867,0.48868 5.76711,0.88851 13.90177,0.88851 21.79741,0 21.9359,0.15472 27.91504,31.18482 1.63246,8.47205 2.58038,3.79898 2.13247,-10.51269 z m 25.29639,-14.27462 c -1.61906,-4.21915 2.45958,-11.97805 6.31404,-12.01135 2.5217,-0.0217 2.71239,-0.39972 0.81016,-1.60551 -1.85668,-1.17689 -0.43964,-3.21519 5.58534,-8.03404 11.52727,-9.21968 20.26428,-15.06619 21.16654,-14.16393 1.35656,1.35655 -14.03254,26.3745 -20.09937,32.67544 -6.27383,6.51593 -11.98188,7.81666 -13.77671,3.13939 z m -20.52016,-15.71941 c -5.1168,-2.06161 -7.27015,-6.13611 -8.8486,-16.74302 -0.68572,-4.60791 -1.66194,-10.56615 -2.16938,-13.24052 -0.85291,-4.49501 -0.33718,-4.94102 6.82405,-5.90155 8.89614,-1.19322 18.52158,-7.42737 24.9767,-16.17677 l 4.47013,-6.05894 2.61671,6.26009 c 3.42896,8.20327 7.10473,11.05224 15.68752,12.15893 5.23177,0.6746 9.31434,-0.3037 15.79949,-3.7861 4.80963,-2.58266 8.33299,-3.69567 7.82971,-2.47335 -0.5033,1.22231 -8.59557,6.41139 -17.98283,11.53129 -11.77112,6.42009 -21.30647,13.49768 -30.72661,22.80682 -7.51238,7.42384 -13.82778,13.44481 -14.03423,13.37988 -0.20643,-0.0649 -2.20563,-0.85545 -4.44266,-1.75676 z M 329.8918,235.48904 c -0.68266,-0.68264 -1.24119,-4.31873 -1.24119,-8.08019 0,-27.38446 29.14792,-87.04755 41.65471,-85.2633 5.85541,0.83532 5.93413,8.37219 0.29416,28.16207 -10.32609,36.23282 -33.13482,72.7543 -40.70768,65.18142 z M 432.91031,218.3207 c 0,-23.86681 21.79847,-73.72384 36.42314,-83.30629 3.7884,-2.48226 5.04945,-2.57371 7.49561,-0.54357 10.88103,9.03044 -25.54007,92.95049 -40.34026,92.95049 -3.04208,0 -3.57849,-1.36416 -3.57849,-9.10063 z M 87.550031,323.26285 c 30.396309,-14.94671 50.660349,-47.7592 71.766999,-116.20847 l 8.28956,-26.88318 3.24933,27.4438 c 1.78712,15.09411 4.34806,31.79943 5.69096,37.12298 2.31681,9.18423 2.77694,9.70775 8.99871,10.23798 6.43424,0.54835 6.65214,0.33512 11.6324,-11.38298 13.28208,-31.25152 57.61004,-104.56586 74.50482,-123.22402 l 6.74327,-7.44712 -4.85943,11.17068 c -26.56265,61.06108 -36.14329,95.07394 -36.14329,128.31452 0,28.05402 7.44138,43.14636 24.86146,50.42322 9.20711,3.84604 16.51666,2.24541 22.56362,-4.94099 5.71968,-6.79743 5.79068,-8.05595 0.75027,-13.29604 -24.90726,-25.89383 -16.87369,-106.83523 17.1267,-172.55859 18.253,-35.283339 43.32713,-64.86547 69.2628,-81.715273 6.88368,-4.472185 12.51581,-8.831224 12.51581,-9.686745 0,-2.725674 -4.32268,-11.1567471 -5.44069,-10.611712 -66.18189,32.26404 -127.07265,98.41978 -176.77778,192.06303 -6.58069,12.39786 -6.51226,12.77104 -3.90558,-21.30042 5.21694,-68.18979 16.81553,-116.270463 33.65635,-139.518502 5.44424,-7.515556 5.47257,-7.680425 2.25618,-13.125347 -1.79152,-3.032809 -3.87551,-5.514183 -4.63109,-5.514183 -0.75557,0 -9.9228,5.164485 -20.37164,11.476642 L 190.2919,45.578799 181.74193,40.803327 C 140.2345,17.619955 88.11852,33.197673 69.516997,74.347945 56.429919,103.29909 64.787974,142.59431 86.619136,154.75337 c 10.862856,6.05018 27.119774,6.25254 38.342774,0.47728 9.76041,-5.02263 19.29263,-15.86743 19.65318,-22.35947 1.07747,-19.40018 -5.56212,-28.81463 -18.10204,-25.66732 -3.71788,0.93313 -4.52008,2.30108 -4.52008,7.70768 0,18.28309 -17.67068,28.81659 -32.832426,19.57142 C 72.332232,124.22156 74.28853,87.210067 92.628633,68.869976 112.74781,48.750772 144.70655,48.27687 165.39746,67.790925 l 6.9121,6.51896 6.74798,-5.362612 c 3.7114,-2.949438 6.92874,-5.362624 7.14967,-5.362624 0.22094,0 -2.34837,8.210291 -5.7096,18.245059 -3.36121,10.034793 -7.43268,27.144142 -9.04771,38.020812 -7.66145,51.59719 -47.58284,137.0267 -78.249754,167.45005 -15.32944,15.20766 -26.954774,21.04926 -41.954842,21.08189 -21.92105,0.0476 -32.342397,-10.3717 -32.426762,-32.42064 -0.07015,-18.35084 4.861604,-30.58432 17.365181,-43.07474 15.012881,-14.99703 36.061893,-20.99613 48.573636,-13.84377 11.507819,6.57846 15.821561,0.1102 8.997533,-13.4913 -6.543525,-13.04239 -12.19546,-16.30157 -28.224006,-16.27525 -16.684161,0.0274 -27.933283,5.07587 -41.543146,18.64408 -11.072918,11.03904 -16.3061415,20.42045 -20.4860589,36.72466 -8.1323527,31.72119 7.0852109,68.19691 33.7425209,80.87914 13.52792,6.43589 34.53895,5.49122 50.305829,-2.26179 z m 102.742569,-5.79803 4.76407,-1.19569 -5.81249,-2.44396 c -4.00326,-1.68326 -5.86471,-3.7758 -5.98037,-6.72286 -0.14019,-3.57437 -0.43956,-3.34435 -1.81788,1.39708 -1.05323,3.62315 -3.51754,6.41322 -6.81375,7.71452 l -5.16381,2.03855 5.28161,0.19806 c 4.13156,0.1549 5.75317,1.46658 7.44713,6.0237 l 2.16551,5.82564 0.58295,-5.81967 c 0.44633,-4.45571 1.69954,-6.0999 5.34703,-7.01537 z m 297.19557,-16.57094 c 5.8253,-2.53361 5.84364,-2.58044 1.03807,-2.65202 -5.29167,-0.0788 -8.14682,-2.5959 -9.58599,-8.45088 -0.68675,-2.79394 -0.96919,-2.42289 -1.13124,1.4862 -0.16588,3.99964 -1.62145,5.82067 -6.26675,7.83969 -6.04483,2.62735 -6.04581,2.62999 -0.99638,2.70281 5.38857,0.0776 8.68733,4.22231 9.22191,11.58661 0.17221,2.37127 0.64538,1.10634 1.05167,-2.81094 0.61277,-5.90821 1.74956,-7.56199 6.66871,-9.70147 z m 147.89077,-4.25071 c 5.84419,-0.83 5.23899,-3.69137 -0.93089,-4.4013 -4.10182,-0.47197 -5.27339,-1.69976 -5.89179,-6.17446 l -0.77192,-5.58533 -1.09461,5.58533 c -0.65153,3.3244 -2.78842,6.3293 -5.27889,7.42317 -5.53256,2.43002 -5.31717,4.67841 0.44819,4.67841 3.99057,0 4.82518,1.09637 6.02334,7.91257 l 1.39088,7.91256 0.95836,-8.37801 c 0.79128,-6.9178 1.68842,-8.4817 5.14733,-8.97294 z m -87.03824,2.17252 c 0,-3.1531 1.23552,-5.04195 3.72357,-5.6926 4.84522,-1.26704 4.81285,-4.26301 -0.0459,-4.26301 -2.34391,0 -4.59221,-1.93642 -5.94451,-5.11989 l -2.1749,-5.1199 -0.70934,5.26473 c -0.52874,3.92433 -2.21482,5.80959 -6.6225,7.40478 l -5.91314,2.14006 6.51622,0.97324 c 5.44426,0.81313 6.61364,1.82068 7.10839,6.12467 0.72174,6.27886 4.0623,4.87097 4.0623,-1.71208 z M 32.6275,152.82988 c 1.535978,-0.78603 5.724978,-2.25169 9.308909,-3.25705 l 6.516224,-1.82792 -8.615495,-0.19007 c -10.088598,-0.22257 -12.11705,-2.13725 -14.106042,-13.3149 l -1.474385,-8.28564 -0.934494,10.23978 -0.934507,10.23981 -9.308896,3.10885 -9.3089081,3.10886 8.8833791,0.14931 c 9.486329,0.15937 10.346902,1.04557 13.70462,14.11261 1.345705,5.23702 1.498874,5.01659 2.456075,-3.53455 0.603185,-5.3886 2.163428,-9.70461 3.81352,-10.54903 z M 567.60803,107.2749 c 18.48032,-8.99096 18.08628,-34.381342 -0.53358,-34.381342 -17.23352,0 -29.74262,23.78759 -17.55177,33.376922 5.84714,4.59937 10.19939,4.84109 18.08535,1.00442 z M 354.71553,80.221956 c 1.53597,-0.786862 5.72498,-2.253199 9.30891,-3.258564 l 6.51622,-1.827918 -8.61549,-0.190063 C 351.91845,74.724643 350.16102,73.096473 347.65291,61.722872 l -1.84752,-8.378013 -0.22789,8.378013 c -0.30142,11.081399 -1.67351,12.819442 -12.4573,15.779993 l -9.12404,2.504867 8.71046,0.166453 c 10.89805,0.208295 13.63643,2.90808 15.62308,15.402954 l 1.57371,9.897551 1.00971,-11.911043 c 0.67106,-7.915891 1.94646,-12.390916 3.80241,-13.341691 z m 259.49078,0.307619 c 1.30954,-1.086812 5.66656,-2.746484 9.68229,-3.688111 l 7.30133,-1.712089 -7.10407,-0.187027 c -9.84433,-0.259155 -14.28084,-3.054326 -14.43727,-9.095967 -0.072,-2.779911 -0.85087,-6.730004 -1.73091,-8.777956 -1.20851,-2.812356 -1.63209,-1.591995 -1.73092,4.986908 -0.14428,9.600404 -3.54591,14.544658 -10.0382,14.590283 -2.2308,0.01492 -5.31272,0.840653 -6.84868,1.833284 -2.02553,1.308993 -0.42601,1.812592 5.82282,1.833271 10.0202,0.03311 11.80131,1.697077 13.98082,13.060967 l 1.60683,8.378012 0.55749,-9.622756 c 0.30662,-5.292526 1.62892,-10.511981 2.93847,-11.598819 z M 458.97524,64.121125 c 2.55995,-1.288851 6.58895,-2.355704 8.95334,-2.370807 2.36438,-0.01492 3.86742,-0.725558 3.34009,-1.578815 -0.52735,-0.853244 -3.42618,-1.189225 -6.44186,-0.746629 -7.01172,1.02912 -13.29869,-4.873841 -13.29869,-12.486366 0,-3.011502 -0.84665,-5.998726 -1.88144,-6.638244 -1.17914,-0.728764 -1.76046,2.035349 -1.55735,7.405159 0.38063,10.062959 -0.69045,11.460021 -10.55671,13.769498 l -7.41498,1.7357 6.62584,0.187014 c 9.66921,0.272923 13.11905,3.667733 14.49478,14.263594 l 1.19394,9.195685 0.94429,-10.196207 c 0.78919,-8.521498 1.70878,-10.581112 5.59875,-12.539582 z m 85.2669,-16.085086 8.75301,-2.681516 -7.807,-0.193819 c -8.95879,-0.222457 -13.4616,-4.817629 -13.82245,-14.106029 -0.15788,-4.06274 -0.64598,-3.087634 -1.74828,3.492354 -1.71178,10.218326 -2.78091,11.265626 -13.64918,13.37059 l -7.65582,1.482801 10.2398,1.041331 c 10.18577,1.035834 10.24832,1.080608 11.85603,8.48845 2.77822,12.801053 3.88255,13.393546 4.49171,2.409888 l 0.58917,-10.622548 z m -262.49627,-34.4524 c 4.12918,-1.510863 4.34073,-1.860835 1.19802,-1.981846 -4.85472,-0.186962 -8.2317,-3.5467872 -8.47498,-8.4319104 -0.13647,-2.74089524 -0.72182,-2.1646844 -2.0767,2.0443929 -1.40477,4.3641174 -3.37711,6.2169675 -7.72249,7.2546345 l -5.83588,1.393581 6.45192,1.12338 c 5.38604,0.937805 6.77013,2.199878 8.37802,7.639617 l 1.92609,6.516224 0.57067,-6.861603 c 0.45767,-5.502941 1.56361,-7.224924 5.58533,-8.69647 z"
       id="path3347"
       inkscape:connector-curvature="0"
       sodipodi:nodetypes="sscssssssssssssscsssssssssscssssscssssssssssscccssssssssssssssssssscsscsscsscccscssscsccsscscscscsscsssscsscssssssssssssssssscccsssscsssccsssssssscssscssssscssssssssssssssssssssssscssssssssssssssscssssssssssssssssssscssssscscsscsscsscsccssssssccscsscsscsscsscsscscssscsscccscssscsccscsssscsscsssssscsscssssssssssscsscssscsssssssssssssssssssscssssssssssssssssssscssssssssssssssssssssscsssssscscssscssssssscssssscssssssssssssssscsssssssssscsssssssssssssssscscsscsscssscscsccssssscsssscsscssscsscsscccscsscccccsssccsssssscsscsscsscsssscscsscssscsssccsscsscsscssccscsscsssccsscsscsscss" />
  </g>
</svg>
