<?xml version="1.0" encoding="UTF-8" standalone="no"?>
<!-- Created with Inkscape (http://www.inkscape.org/) -->

<svg
   xmlns:dc="http://purl.org/dc/elements/1.1/"
   xmlns:cc="http://creativecommons.org/ns#"
   xmlns:rdf="http://www.w3.org/1999/02/22-rdf-syntax-ns#"
   xmlns:svg="http://www.w3.org/2000/svg"
   xmlns="http://www.w3.org/2000/svg"
   xmlns:sodipodi="http://sodipodi.sourceforge.net/DTD/sodipodi-0.dtd"
   xmlns:inkscape="http://www.inkscape.org/namespaces/inkscape"
   width="1000"
   height="1000"
   viewBox="0 0 999.99989 1000"
   id="svg2"
   version="1.1"
   inkscape:version="0.91 r13725"
   sodipodi:docname="number-2.svg">
  <defs
     id="defs4" />
  <sodipodi:namedview
     id="base"
     pagecolor="#000000"
     bordercolor="#666666"
     borderopacity="1.0"
     inkscape:pageopacity="0"
     inkscape:pageshadow="2"
     inkscape:zoom="0.44"
     inkscape:cx="1026.2194"
     inkscape:cy="1057.4783"
     inkscape:document-units="px"
     inkscape:current-layer="layer1"
     showgrid="false"
     showguides="true"
     inkscape:guide-bbox="true"
     inkscape:window-width="1680"
     inkscape:window-height="987"
     inkscape:window-x="-8"
     inkscape:window-y="-8"
     inkscape:window-maximized="1"
     units="px">
    <sodipodi:guide
       position="754.54537,500"
       orientation="0,1"
       id="guide3346"
       inkscape:label=""
       inkscape:color="rgb(0,0,255)" />
    <sodipodi:guide
       position="499.99995,179.54545"
       orientation="1,0"
       id="guide3348"
       inkscape:label=""
       inkscape:color="rgb(0,0,255)" />
  </sodipodi:namedview>
  <metadata
     id="metadata7">
    <rdf:RDF>
      <cc:Work
         rdf:about="">
        <dc:format>image/svg+xml</dc:format>
        <dc:type
           rdf:resource="http://purl.org/dc/dcmitype/StillImage" />
        <dc:title />
      </cc:Work>
    </rdf:RDF>
  </metadata>
  <g
     inkscape:label="Layer 1"
     inkscape:groupmode="layer"
     id="layer1"
     transform="translate(0,-52.362131)">
    <path
       style="fill:none;fill-rule:evenodd;stroke:#ffffff;stroke-width:4.03957653;stroke-linecap:butt;stroke-linejoin:miter;stroke-miterlimit:4;stroke-dasharray:none;stroke-opacity:1"
       d="m 501.15079,52.362206 0,998.946294"
       id="path4169"
       inkscape:connector-curvature="0" />
    <g
       transform="matrix(18.208492,0,0,18.208492,-6809.6024,-8165.5733)"
       style="font-style:normal;font-variant:normal;font-weight:normal;font-stretch:normal;font-size:40px;line-height:300%;font-family:sans-serif;-inkscape-font-specification:'sans-serif, Normal';text-align:end;letter-spacing:0px;word-spacing:0px;writing-mode:lr-tb;text-anchor:end;fill:#ffffff;fill-opacity:1;stroke:#ffffff;stroke-width:1px;stroke-linecap:butt;stroke-linejoin:miter;stroke-opacity:1"
       id="flowRoot3338">
      <path
         d="m 411.64844,493.31566 -19.6875,0 0,-4.08203 q 2.05078,-1.75782 4.10156,-3.51563 2.07031,-1.75781 3.84766,-3.49609 3.75,-3.63281 5.13671,-5.76172 1.38672,-2.14844 1.38672,-4.62891 0,-2.26562 -1.5039,-3.53515 -1.48438,-1.28907 -4.16016,-1.28907 -1.77734,0 -3.84766,0.625 -2.07031,0.625 -4.04296,1.91407 l -0.19532,0 0,-4.10157 q 1.38672,-0.68359 3.69141,-1.25 2.32422,-0.5664 4.49219,-0.5664 4.47265,0 7.01172,2.16797 2.53906,2.14843 2.53906,5.83984 0,1.66016 -0.42969,3.10547 -0.41016,1.42578 -1.23047,2.71484 -0.76172,1.21094 -1.79687,2.38282 -1.01563,1.17187 -2.48047,2.59765 -2.08985,2.05078 -4.31641,3.98438 -2.22656,1.91406 -4.16015,3.55468 l 15.64453,0 0,3.33985 z"
         style=""
         id="path3353" />
    </g>
    <circle
       style="opacity:1;fill:none;fill-opacity:1;stroke:#ffffff;stroke-width:8.31639862;stroke-linecap:round;stroke-linejoin:miter;stroke-miterlimit:4;stroke-dasharray:none;stroke-opacity:1"
       id="path3352"
       cx="503.42725"
       cy="553.2287"
       r="408.69159" />
    <circle
       style="opacity:1;fill:none;fill-opacity:1;stroke:#ffffff;stroke-width:9.4481554;stroke-linecap:round;stroke-linejoin:miter;stroke-miterlimit:4;stroke-dasharray:none;stroke-opacity:1"
       id="path3352-4"
       cx="503.35187"
       cy="552.60144"
       r="464.30942" />
    <path
       style="fill:none;fill-rule:evenodd;stroke:#ffffff;stroke-width:4.00959587;stroke-linecap:butt;stroke-linejoin:miter;stroke-miterlimit:4;stroke-dasharray:none;stroke-opacity:1"
       d="m 2.2727218,552.60147 c 1002.3989782,0 1002.3989782,0 1002.3989782,0"
       id="path4171"
       inkscape:connector-curvature="0" />
  </g>
</svg>
