<?xml version="1.0" encoding="UTF-8" standalone="no"?>
<!-- Created with Inkscape (http://www.inkscape.org/) -->

<svg
   xmlns:dc="http://purl.org/dc/elements/1.1/"
   xmlns:cc="http://creativecommons.org/ns#"
   xmlns:rdf="http://www.w3.org/1999/02/22-rdf-syntax-ns#"
   xmlns:svg="http://www.w3.org/2000/svg"
   xmlns="http://www.w3.org/2000/svg"
   xmlns:sodipodi="http://sodipodi.sourceforge.net/DTD/sodipodi-0.dtd"
   xmlns:inkscape="http://www.inkscape.org/namespaces/inkscape"
   width="1000"
   height="1000"
   viewBox="0 0 999.99989 1000"
   id="svg2"
   version="1.1"
   inkscape:version="0.91 r13725"
   sodipodi:docname="number-6.svg">
  <defs
     id="defs4" />
  <sodipodi:namedview
     id="base"
     pagecolor="#000000"
     bordercolor="#666666"
     borderopacity="1.0"
     inkscape:pageopacity="0"
     inkscape:pageshadow="2"
     inkscape:zoom="0.44"
     inkscape:cx="1026.2194"
     inkscape:cy="1057.4783"
     inkscape:document-units="px"
     inkscape:current-layer="layer1"
     showgrid="false"
     showguides="true"
     inkscape:guide-bbox="true"
     inkscape:window-width="1680"
     inkscape:window-height="987"
     inkscape:window-x="-8"
     inkscape:window-y="-8"
     inkscape:window-maximized="1"
     units="px">
    <sodipodi:guide
       position="754.54537,500"
       orientation="0,1"
       id="guide3346"
       inkscape:label=""
       inkscape:color="rgb(0,0,255)" />
    <sodipodi:guide
       position="499.99995,179.54545"
       orientation="1,0"
       id="guide3348"
       inkscape:label=""
       inkscape:color="rgb(0,0,255)" />
  </sodipodi:namedview>
  <metadata
     id="metadata7">
    <rdf:RDF>
      <cc:Work
         rdf:about="">
        <dc:format>image/svg+xml</dc:format>
        <dc:type
           rdf:resource="http://purl.org/dc/dcmitype/StillImage" />
        <dc:title />
      </cc:Work>
    </rdf:RDF>
  </metadata>
  <g
     inkscape:label="Layer 1"
     inkscape:groupmode="layer"
     id="layer1"
     transform="translate(0,-52.362131)">
    <path
       style="fill:none;fill-rule:evenodd;stroke:#ffffff;stroke-width:4.03957653;stroke-linecap:butt;stroke-linejoin:miter;stroke-miterlimit:4;stroke-dasharray:none;stroke-opacity:1"
       d="m 501.15079,52.362206 0,998.946294"
       id="path4169"
       inkscape:connector-curvature="0" />
    <g
       transform="matrix(18.208492,0,0,18.208492,-6809.6024,-8165.5733)"
       style="font-style:normal;font-variant:normal;font-weight:normal;font-stretch:normal;font-size:40px;line-height:300%;font-family:sans-serif;-inkscape-font-specification:'sans-serif, Normal';text-align:end;letter-spacing:0px;word-spacing:0px;writing-mode:lr-tb;text-anchor:end;fill:#ffffff;fill-opacity:1;stroke:#ffffff;stroke-width:1px;stroke-linecap:butt;stroke-linejoin:miter;stroke-opacity:1"
       id="flowRoot3338">
      <path
         d="m 412.07812,483.88206 q 0,4.4336 -2.92968,7.2461 -2.91016,2.79297 -7.14844,2.79297 -2.14844,0 -3.90625,-0.66407 -1.75781,-0.66406 -3.10547,-1.97265 -1.67969,-1.6211 -2.59766,-4.29688 -0.89843,-2.67578 -0.89843,-6.44531 0,-3.86719 0.82031,-6.85547 0.83984,-2.98828 2.65625,-5.3125 1.71875,-2.20703 4.43359,-3.4375 2.71485,-1.25 6.32813,-1.25 1.15234,0 1.93359,0.0977 0.78125,0.0977 1.58203,0.35156 l 0,3.73047 -0.19531,0 q -0.54687,-0.29297 -1.66016,-0.54688 -1.09375,-0.27343 -2.24609,-0.27343 -4.19922,0 -6.69922,2.63672 -2.5,2.61718 -2.91015,7.08984 1.64062,-0.99609 3.22265,-1.50391 1.60156,-0.52734 3.69141,-0.52734 1.85547,0 3.26172,0.35156 1.42578,0.33203 2.91015,1.36719 1.71875,1.19141 2.57813,3.00781 0.8789,1.81641 0.8789,4.41406 z m -3.96484,0.15625 q 0,-1.8164 -0.54687,-3.00781 -0.52735,-1.1914 -1.75782,-2.07031 -0.89843,-0.625 -1.99218,-0.82031 -1.09375,-0.19532 -2.28516,-0.19532 -1.66016,0 -3.08594,0.39063 -1.42578,0.39062 -2.92969,1.21094 -0.0391,0.42968 -0.0586,0.83984 -0.0195,0.39063 -0.0195,0.99609 0,3.08594 0.625,4.88282 0.64453,1.77734 1.75781,2.8125 0.89844,0.85937 1.9336,1.26953 1.05468,0.39062 2.28515,0.39062 2.83203,0 4.45313,-1.71875 1.62109,-1.73828 1.62109,-4.98047 z"
         style=""
         id="path3425" />
    </g>
    <circle
       style="opacity:1;fill:none;fill-opacity:1;stroke:#ffffff;stroke-width:8.31639862;stroke-linecap:round;stroke-linejoin:miter;stroke-miterlimit:4;stroke-dasharray:none;stroke-opacity:1"
       id="path3352"
       cx="503.42725"
       cy="553.2287"
       r="408.69159" />
    <circle
       style="opacity:1;fill:none;fill-opacity:1;stroke:#ffffff;stroke-width:9.4481554;stroke-linecap:round;stroke-linejoin:miter;stroke-miterlimit:4;stroke-dasharray:none;stroke-opacity:1"
       id="path3352-4"
       cx="503.35187"
       cy="552.60144"
       r="464.30942" />
    <path
       style="fill:none;fill-rule:evenodd;stroke:#ffffff;stroke-width:4.00959587;stroke-linecap:butt;stroke-linejoin:miter;stroke-miterlimit:4;stroke-dasharray:none;stroke-opacity:1"
       d="m 2.2727218,552.60147 c 1002.3989782,0 1002.3989782,0 1002.3989782,0"
       id="path4171"
       inkscape:connector-curvature="0" />
  </g>
</svg>
