<?xml version="1.0" encoding="UTF-8" standalone="no"?>
<!-- Created with Inkscape (http://www.inkscape.org/) -->

<svg
   xmlns:dc="http://purl.org/dc/elements/1.1/"
   xmlns:cc="http://creativecommons.org/ns#"
   xmlns:rdf="http://www.w3.org/1999/02/22-rdf-syntax-ns#"
   xmlns:svg="http://www.w3.org/2000/svg"
   xmlns="http://www.w3.org/2000/svg"
   xmlns:sodipodi="http://sodipodi.sourceforge.net/DTD/sodipodi-0.dtd"
   xmlns:inkscape="http://www.inkscape.org/namespaces/inkscape"
   width="1000"
   height="1000"
   viewBox="0 0 999.99989 1000"
   id="svg2"
   version="1.1"
   inkscape:version="0.91 r13725"
   sodipodi:docname="number-8.svg">
  <defs
     id="defs4" />
  <sodipodi:namedview
     id="base"
     pagecolor="#000000"
     bordercolor="#666666"
     borderopacity="1.0"
     inkscape:pageopacity="0"
     inkscape:pageshadow="2"
     inkscape:zoom="0.22"
     inkscape:cx="1084.9149"
     inkscape:cy="688.82257"
     inkscape:document-units="px"
     inkscape:current-layer="layer1"
     showgrid="false"
     showguides="true"
     inkscape:guide-bbox="true"
     inkscape:window-width="1680"
     inkscape:window-height="987"
     inkscape:window-x="-8"
     inkscape:window-y="-8"
     inkscape:window-maximized="1"
     units="px">
    <sodipodi:guide
       position="754.54537,500"
       orientation="0,1"
       id="guide3346"
       inkscape:label=""
       inkscape:color="rgb(0,0,255)" />
    <sodipodi:guide
       position="499.99995,179.54545"
       orientation="1,0"
       id="guide3348"
       inkscape:label=""
       inkscape:color="rgb(0,0,255)" />
  </sodipodi:namedview>
  <metadata
     id="metadata7">
    <rdf:RDF>
      <cc:Work
         rdf:about="">
        <dc:format>image/svg+xml</dc:format>
        <dc:type
           rdf:resource="http://purl.org/dc/dcmitype/StillImage" />
        <dc:title />
      </cc:Work>
    </rdf:RDF>
  </metadata>
  <g
     inkscape:label="Layer 1"
     inkscape:groupmode="layer"
     id="layer1"
     transform="translate(0,-52.362131)">
    <path
       style="fill:none;fill-rule:evenodd;stroke:#ffffff;stroke-width:4.03957653;stroke-linecap:butt;stroke-linejoin:miter;stroke-miterlimit:4;stroke-dasharray:none;stroke-opacity:1"
       d="m 501.15079,52.362206 0,998.946294"
       id="path4169"
       inkscape:connector-curvature="0" />
    <g
       transform="matrix(18.208492,0,0,18.208492,-6809.6024,-8165.5733)"
       style="font-style:normal;font-variant:normal;font-weight:normal;font-stretch:normal;font-size:40px;line-height:300%;font-family:sans-serif;-inkscape-font-specification:'sans-serif, Normal';text-align:end;letter-spacing:0px;word-spacing:0px;writing-mode:lr-tb;text-anchor:end;fill:#ffffff;fill-opacity:1;stroke:#ffffff;stroke-width:1px;stroke-linecap:butt;stroke-linejoin:miter;stroke-opacity:1"
       id="flowRoot3338">
      <path
         d="m 411.86328,485.21019 q 0,3.76953 -2.94922,6.26953 -2.92969,2.5 -7.38281,2.5 -4.72656,0 -7.53906,-2.44141 -2.79297,-2.4414 -2.79297,-6.25 0,-2.42187 1.40625,-4.375 1.40625,-1.97265 3.96484,-3.125 l 0,-0.11718 q -2.34375,-1.25 -3.47656,-2.73438 -1.11328,-1.48437 -1.11328,-3.71094 0,-3.28125 2.69531,-5.46875 2.69531,-2.1875 6.85547,-2.1875 4.35547,0 6.95312,2.08985 2.59766,2.08984 2.59766,5.3125 0,1.97265 -1.23047,3.88672 -1.23047,1.89453 -3.61328,2.96875 l 0,0.11718 q 2.73438,1.17188 4.17969,2.89063 1.44531,1.71875 1.44531,4.375 z m -4.62891,-14.19922 q 0,-2.08984 -1.62109,-3.32031 -1.60156,-1.25 -4.10156,-1.25 -2.46094,0 -4.04297,1.17187 -1.5625,1.17188 -1.5625,3.16407 0,1.40625 0.78125,2.4414 0.80078,1.01563 2.40234,1.81641 0.72266,0.35156 2.07032,0.91797 1.36718,0.5664 2.65625,0.9375 1.93359,-1.28907 2.67578,-2.67578 0.74218,-1.38672 0.74218,-3.20313 z m 0.60547,14.57031 q 0,-1.79687 -0.80078,-2.87109 -0.78125,-1.09375 -3.08594,-2.1875 -0.91796,-0.42969 -2.01171,-0.80078 -1.09375,-0.3711 -2.91016,-1.03516 -1.75781,0.95703 -2.83203,2.59766 -1.05469,1.64062 -1.05469,3.71094 0,2.63671 1.81641,4.35546 1.8164,1.71875 4.60937,1.71875 2.85156,0 4.55078,-1.46484 1.71875,-1.46484 1.71875,-4.02344 z"
         style=""
         id="path3424" />
    </g>
    <circle
       style="opacity:1;fill:none;fill-opacity:1;stroke:#ffffff;stroke-width:8.31639862;stroke-linecap:round;stroke-linejoin:miter;stroke-miterlimit:4;stroke-dasharray:none;stroke-opacity:1"
       id="path3352"
       cx="503.42725"
       cy="553.2287"
       r="408.69159" />
    <circle
       style="opacity:1;fill:none;fill-opacity:1;stroke:#ffffff;stroke-width:9.4481554;stroke-linecap:round;stroke-linejoin:miter;stroke-miterlimit:4;stroke-dasharray:none;stroke-opacity:1"
       id="path3352-4"
       cx="503.35187"
       cy="552.60144"
       r="464.30942" />
    <path
       style="fill:none;fill-rule:evenodd;stroke:#ffffff;stroke-width:4.00959587;stroke-linecap:butt;stroke-linejoin:miter;stroke-miterlimit:4;stroke-dasharray:none;stroke-opacity:1"
       d="m 2.2727218,552.60147 c 1002.3989782,0 1002.3989782,0 1002.3989782,0"
       id="path4171"
       inkscape:connector-curvature="0" />
  </g>
</svg>
