<?xml version="1.0" encoding="UTF-8" standalone="no"?>
<!-- Created with Inkscape (http://www.inkscape.org/) -->

<svg
   xmlns:dc="http://purl.org/dc/elements/1.1/"
   xmlns:cc="http://creativecommons.org/ns#"
   xmlns:rdf="http://www.w3.org/1999/02/22-rdf-syntax-ns#"
   xmlns:svg="http://www.w3.org/2000/svg"
   xmlns="http://www.w3.org/2000/svg"
   xmlns:sodipodi="http://sodipodi.sourceforge.net/DTD/sodipodi-0.dtd"
   xmlns:inkscape="http://www.inkscape.org/namespaces/inkscape"
   width="1000"
   height="1000"
   viewBox="0 0 999.99989 1000"
   id="svg2"
   version="1.1"
   inkscape:version="0.91 r13725"
   sodipodi:docname="number-9.svg">
  <defs
     id="defs4" />
  <sodipodi:namedview
     id="base"
     pagecolor="#000000"
     bordercolor="#666666"
     borderopacity="1.0"
     inkscape:pageopacity="0"
     inkscape:pageshadow="2"
     inkscape:zoom="0.44"
     inkscape:cx="1026.2194"
     inkscape:cy="875.66016"
     inkscape:document-units="px"
     inkscape:current-layer="layer1"
     showgrid="false"
     showguides="true"
     inkscape:guide-bbox="true"
     inkscape:window-width="1680"
     inkscape:window-height="987"
     inkscape:window-x="-8"
     inkscape:window-y="-8"
     inkscape:window-maximized="1"
     units="px">
    <sodipodi:guide
       position="754.54537,500"
       orientation="0,1"
       id="guide3346"
       inkscape:label=""
       inkscape:color="rgb(0,0,255)" />
    <sodipodi:guide
       position="499.99995,179.54545"
       orientation="1,0"
       id="guide3348"
       inkscape:label=""
       inkscape:color="rgb(0,0,255)" />
  </sodipodi:namedview>
  <metadata
     id="metadata7">
    <rdf:RDF>
      <cc:Work
         rdf:about="">
        <dc:format>image/svg+xml</dc:format>
        <dc:type
           rdf:resource="http://purl.org/dc/dcmitype/StillImage" />
        <dc:title></dc:title>
      </cc:Work>
    </rdf:RDF>
  </metadata>
  <g
     inkscape:label="Layer 1"
     inkscape:groupmode="layer"
     id="layer1"
     transform="translate(0,-52.362131)">
    <path
       style="fill:none;fill-rule:evenodd;stroke:#ffffff;stroke-width:4.03957653;stroke-linecap:butt;stroke-linejoin:miter;stroke-miterlimit:4;stroke-dasharray:none;stroke-opacity:1"
       d="m 501.15079,52.362206 0,998.946294"
       id="path4169"
       inkscape:connector-curvature="0" />
    <g
       transform="matrix(18.208492,0,0,18.208492,-6809.6024,-8165.5733)"
       style="font-style:normal;font-variant:normal;font-weight:normal;font-stretch:normal;font-size:40px;line-height:300%;font-family:sans-serif;-inkscape-font-specification:'sans-serif, Normal';text-align:end;letter-spacing:0px;word-spacing:0px;writing-mode:lr-tb;text-anchor:end;fill:#ffffff;fill-opacity:1;stroke:#ffffff;stroke-width:1px;stroke-linecap:butt;stroke-linejoin:miter;stroke-opacity:1"
       id="flowRoot3338">
      <path
         d="m 411.60937,477.0266 q 0,3.80859 -0.8789,6.91406 -0.85938,3.10547 -2.61719,5.29297 -1.77734,2.22656 -4.45312,3.4375 -2.67579,1.21093 -6.28907,1.21093 -1.01562,0 -1.91406,-0.11718 -0.89844,-0.0977 -1.60156,-0.33203 l 0,-3.73047 0.19531,0 q 0.56641,0.29297 1.60156,0.5664 1.03516,0.25391 2.30469,0.25391 4.31641,0 6.75781,-2.57813 2.46094,-2.59765 2.85157,-7.14843 -1.81641,1.09375 -3.41797,1.5625 -1.60157,0.46875 -3.4961,0.46875 -1.79687,0 -3.26172,-0.35157 -1.44531,-0.35156 -2.91015,-1.36718 -1.71875,-1.19141 -2.59766,-3.02735 -0.85937,-1.83593 -0.85937,-4.39453 0,-4.45312 2.92968,-7.24609 2.92969,-2.79297 7.14844,-2.79297 2.10938,0 3.90625,0.66406 1.79688,0.64453 3.14453,1.95313 1.66016,1.62109 2.5586,4.17968 0.89843,2.53907 0.89843,6.58204 z m -3.94531,-0.83985 q 0,-3.02734 -0.625,-4.86328 -0.625,-1.83594 -1.71875,-2.85156 -0.91797,-0.87891 -1.97265,-1.25 -1.05469,-0.39063 -2.28516,-0.39063 -2.8125,0 -4.45313,1.75782 -1.62109,1.75781 -1.62109,4.9414 0,1.85547 0.52734,3.02735 0.52735,1.17187 1.77735,2.05078 0.8789,0.60547 1.93359,0.82031 1.05469,0.19531 2.34375,0.19531 1.52344,0 3.08594,-0.41015 1.5625,-0.41016 2.92969,-1.19141 0.0195,-0.41016 0.0391,-0.80078 0.0391,-0.41016 0.0391,-1.03516 z"
         style=""
         id="path3442" />
    </g>
    <circle
       style="opacity:1;fill:none;fill-opacity:1;stroke:#ffffff;stroke-width:8.31639862;stroke-linecap:round;stroke-linejoin:miter;stroke-miterlimit:4;stroke-dasharray:none;stroke-opacity:1"
       id="path3352"
       cx="503.42725"
       cy="553.2287"
       r="408.69159" />
    <circle
       style="opacity:1;fill:none;fill-opacity:1;stroke:#ffffff;stroke-width:9.4481554;stroke-linecap:round;stroke-linejoin:miter;stroke-miterlimit:4;stroke-dasharray:none;stroke-opacity:1"
       id="path3352-4"
       cx="503.35187"
       cy="552.60144"
       r="464.30942" />
    <path
       style="fill:none;fill-rule:evenodd;stroke:#ffffff;stroke-width:4.00959587;stroke-linecap:butt;stroke-linejoin:miter;stroke-miterlimit:4;stroke-dasharray:none;stroke-opacity:1"
       d="m 2.2727218,552.60147 c 1002.3989782,0 1002.3989782,0 1002.3989782,0"
       id="path4171"
       inkscape:connector-curvature="0" />
  </g>
</svg>
