<?xml version="1.0" encoding="UTF-8" standalone="no"?>
<!-- Created with Inkscape (http://www.inkscape.org/) -->

<svg
   xmlns:dc="http://purl.org/dc/elements/1.1/"
   xmlns:cc="http://creativecommons.org/ns#"
   xmlns:rdf="http://www.w3.org/1999/02/22-rdf-syntax-ns#"
   xmlns:svg="http://www.w3.org/2000/svg"
   xmlns="http://www.w3.org/2000/svg"
   xmlns:sodipodi="http://sodipodi.sourceforge.net/DTD/sodipodi-0.dtd"
   xmlns:inkscape="http://www.inkscape.org/namespaces/inkscape"
   width="1000"
   height="1000"
   viewBox="0 0 999.99989 1000"
   id="svg2"
   version="1.1"
   inkscape:version="0.91 r13725"
   sodipodi:docname="number-3.svg">
  <defs
     id="defs4" />
  <sodipodi:namedview
     id="base"
     pagecolor="#000000"
     bordercolor="#666666"
     borderopacity="1.0"
     inkscape:pageopacity="0"
     inkscape:pageshadow="2"
     inkscape:zoom="0.44"
     inkscape:cx="1026.2194"
     inkscape:cy="1057.4783"
     inkscape:document-units="px"
     inkscape:current-layer="layer1"
     showgrid="false"
     showguides="true"
     inkscape:guide-bbox="true"
     inkscape:window-width="1680"
     inkscape:window-height="987"
     inkscape:window-x="-8"
     inkscape:window-y="-8"
     inkscape:window-maximized="1"
     units="px">
    <sodipodi:guide
       position="754.54537,500"
       orientation="0,1"
       id="guide3346"
       inkscape:label=""
       inkscape:color="rgb(0,0,255)" />
    <sodipodi:guide
       position="499.99995,179.54545"
       orientation="1,0"
       id="guide3348"
       inkscape:label=""
       inkscape:color="rgb(0,0,255)" />
  </sodipodi:namedview>
  <metadata
     id="metadata7">
    <rdf:RDF>
      <cc:Work
         rdf:about="">
        <dc:format>image/svg+xml</dc:format>
        <dc:type
           rdf:resource="http://purl.org/dc/dcmitype/StillImage" />
        <dc:title />
      </cc:Work>
    </rdf:RDF>
  </metadata>
  <g
     inkscape:label="Layer 1"
     inkscape:groupmode="layer"
     id="layer1"
     transform="translate(0,-52.362131)">
    <path
       style="fill:none;fill-rule:evenodd;stroke:#ffffff;stroke-width:4.03957653;stroke-linecap:butt;stroke-linejoin:miter;stroke-miterlimit:4;stroke-dasharray:none;stroke-opacity:1"
       d="m 501.15079,52.362206 0,998.946294"
       id="path4169"
       inkscape:connector-curvature="0" />
    <g
       transform="matrix(18.208492,0,0,18.208492,-6809.6024,-8165.5733)"
       style="font-style:normal;font-variant:normal;font-weight:normal;font-stretch:normal;font-size:40px;line-height:300%;font-family:sans-serif;-inkscape-font-specification:'sans-serif, Normal';text-align:end;letter-spacing:0px;word-spacing:0px;writing-mode:lr-tb;text-anchor:end;fill:#ffffff;fill-opacity:1;stroke:#ffffff;stroke-width:1px;stroke-linecap:butt;stroke-linejoin:miter;stroke-opacity:1"
       id="flowRoot3338">
      <path
         d="m 409.08984,479.31175 q 0.9375,0.83985 1.54297,2.10938 0.60547,1.26953 0.60547,3.28125 0,1.99218 -0.72266,3.65234 -0.72265,1.66016 -2.03125,2.89063 -1.46484,1.36718 -3.45703,2.03125 -1.97265,0.64453 -4.33593,0.64453 -2.42188,0 -4.76563,-0.58594 -2.34375,-0.56641 -3.84766,-1.25 l 0,-4.08203 0.29297,0 q 1.66016,1.09375 3.90625,1.8164 2.2461,0.72266 4.33594,0.72266 1.23047,0 2.61719,-0.41016 1.38672,-0.41015 2.24609,-1.21093 0.89844,-0.85938 1.32813,-1.89453 0.44922,-1.03516 0.44922,-2.61719 0,-1.5625 -0.50782,-2.57813 -0.48828,-1.03515 -1.36718,-1.62109 Q 404.5,479.60472 403.25,479.38988 402,479.1555 400.55469,479.1555 l -1.75782,0 0,-3.24219 1.36719,0 q 2.96875,0 4.72656,-1.23046 1.77735,-1.25 1.77735,-3.63282 0,-1.05468 -0.44922,-1.83593 -0.44922,-0.80079 -1.25,-1.3086 -0.83984,-0.50781 -1.79688,-0.70312 -0.95703,-0.19532 -2.16796,-0.19532 -1.85547,0 -3.94532,0.66407 -2.08984,0.66406 -3.94531,1.875 l -0.19531,0 0,-4.08203 q 1.38672,-0.6836 3.6914,-1.25 2.32422,-0.58594 4.49219,-0.58594 2.12891,0 3.75,0.39062 1.6211,0.39063 2.92969,1.25 1.40625,0.9375 2.12891,2.26563 0.72265,1.32812 0.72265,3.10547 0,2.42187 -1.71875,4.23828 -1.69922,1.79687 -4.02344,2.26562 l 0,0.27344 q 0.9375,0.15625 2.14844,0.66406 1.21094,0.48828 2.05078,1.23047 z"
         style=""
         id="path3371" />
    </g>
    <circle
       style="opacity:1;fill:none;fill-opacity:1;stroke:#ffffff;stroke-width:8.31639862;stroke-linecap:round;stroke-linejoin:miter;stroke-miterlimit:4;stroke-dasharray:none;stroke-opacity:1"
       id="path3352"
       cx="503.42725"
       cy="553.2287"
       r="408.69159" />
    <circle
       style="opacity:1;fill:none;fill-opacity:1;stroke:#ffffff;stroke-width:9.4481554;stroke-linecap:round;stroke-linejoin:miter;stroke-miterlimit:4;stroke-dasharray:none;stroke-opacity:1"
       id="path3352-4"
       cx="503.35187"
       cy="552.60144"
       r="464.30942" />
    <path
       style="fill:none;fill-rule:evenodd;stroke:#ffffff;stroke-width:4.00959587;stroke-linecap:butt;stroke-linejoin:miter;stroke-miterlimit:4;stroke-dasharray:none;stroke-opacity:1"
       d="m 2.2727218,552.60147 c 1002.3989782,0 1002.3989782,0 1002.3989782,0"
       id="path4171"
       inkscape:connector-curvature="0" />
  </g>
</svg>
